 <svg  version="1.0" xmlns="http://www.w3.org/2000/svg"  width="231.000000pt" height="212.000000pt" viewBox="0 0 231.000000 212.000000"  preserveAspectRatio="xMidYMid meet">  <g transform="translate(0.000000,212.000000) scale(0.100000,-0.100000)" fill="#ffffff" stroke="none"> <path d="M1082 1931 c-29 -10 -82 -38 -118 -62 -56 -38 -67 -51 -85 -99 -43 -113 -43 -193 -1 -291 29 -67 150 -159 189 -144 14 5 15 -25 10 -291 -5 -239 -4 -302 7 -329 28 -67 100 -85 155 -39 17 14 31 33 31 43 0 28 21 41 66 41 27 0 51 7 68 21 22 17 26 28 26 73 0 38 -6 61 -20 79 -24 30 -25 41 -5 57 10 9 15 32 15 76 0 54 -3 65 -22 78 -12 9 -41 16 -63 16 -23 0 -46 5 -53 12 -7 7 -12 39 -12 75 l0 63 48 24 c98 50 126 78 157 157 56 139 31 265 -69 355 -46 42 -73 57 -159 93 -40 16 -104 13 -165 -8z m214 -40 c103 -46 184 -158 184 -255 0 -53 -18 -126 -32 -126 -4 0 -8 -11 -8 -24 0 -37 -37 -76 -73 -77 -27 0 -29 -2 -12 -9 17 -7 12 -12 -35 -33 -122 -57 -184 -56 -218 3 -9 16 -22 30 -29 30 -18 0 -27 20 -15 32 8 8 15 8 25 -1 12 -9 16 -7 20 8 8 31 -24 31 -55 -1 -19 -20 -36 -28 -60 -28 -44 0 -61 18 -94 101 -22 53 -25 74 -21 124 9 100 36 165 82 197 54 38 114 70 150 79 48 13 138 3 191 -20z m-245 -501 c18 -10 27 -40 12 -40 -5 0 -26 11 -48 25 -39 24 -40 24 -12 25 16 0 37 -5 48 -10z m89 -375 l5 -300 27 -3 c49 -6 52 15 45 314 -5 265 -3 294 25 294 4 0 8 -43 8 -95 l0 -95 70 0 c39 0 70 -3 71 -7 0 -5 1 -33 2 -63 l1 -55 -59 -5 c-59 -5 -60 -6 -60 -35 0 -29 1 -30 60 -35 l60 -5 3 -53 c4 -72 -6 -82 -84 -82 -64 0 -64 0 -64 -29 0 -69 -82 -108 -126 -60 -18 20 -19 42 -22 321 -3 284 -2 299 15 296 17 -3 18 -25 23 -303z m50 -10 c0 -238 -2 -275 -15 -275 -13 0 -15 37 -15 275 0 238 2 275 15 275 13 0 15 -37 15 -275z"/> <path d="M1139 1879 c-26 -26 -21 -59 12 -78 24 -13 29 -13 53 2 33 22 34 60 4 81 -30 21 -44 20 -69 -5z m60 -21 c10 -28 9 -35 -5 -45 -24 -18 -42 -6 -46 32 -4 33 0 38 34 44 3 0 11 -14 17 -31z"/> <path d="M1056 1859 l-38 -21 21 -22 c12 -12 21 -31 21 -41 0 -18 0 -18 14 0 13 18 46 16 46 -4 0 -10 -39 -27 -52 -23 -5 1 -8 -5 -8 -13 0 -8 -10 -25 -22 -37 -17 -17 -22 -34 -23 -74 0 -44 4 -56 28 -78 15 -14 27 -35 28 -48 0 -13 3 -17 6 -11 3 10 9 10 26 1 41 -22 177 -5 177 23 0 5 14 22 30 39 76 78 -8 220 -130 220 -50 0 -80 20 -80 55 0 18 0 18 -14 0 -9 -13 -19 -16 -32 -11 -17 7 -15 10 14 24 17 9 32 22 32 29 0 16 3 16 -44 -8z m208 -151 c52 -46 59 -94 21 -148 -49 -70 -139 -79 -202 -18 -40 39 -51 84 -29 126 26 51 62 72 121 72 44 0 57 -5 89 -32z"/> <path d="M1250 1873 c0 -15 15 -29 54 -51 43 -25 74 -16 34 10 -42 27 -88 49 -88 41z"/> <path d="M1241 1798 c-7 -11 -8 -17 -2 -14 6 4 20 2 32 -4 33 -18 43 3 11 22 -27 16 -29 16 -41 -4z"/> <path d="M947 1792 c-23 -25 -21 -55 3 -77 46 -41 116 29 75 75 -23 25 -57 26 -78 2z m66 -28 c5 -29 -17 -56 -38 -48 -8 4 -15 14 -15 24 0 10 -3 25 -6 33 -3 10 1 17 13 19 28 7 41 -1 46 -28z"/> <path d="M1368 1784 c-4 -3 5 -22 18 -41 43 -64 57 -154 24 -161 -12 -2 -15 9 -16 46 0 49 -43 142 -64 142 -14 0 -21 -18 -10 -25 37 -23 69 -163 38 -166 -7 -1 1 -5 17 -9 17 -4 38 -11 47 -15 13 -5 18 1 24 30 9 51 -3 113 -32 163 -24 41 -34 49 -46 36z"/> <path d="M906 1679 c-10 -54 -7 -90 16 -157 26 -79 55 -103 93 -78 50 33 16 105 -44 93 -29 -6 -31 -4 -42 36 -8 29 -8 54 -2 79 8 28 7 41 -2 48 -9 8 -14 2 -19 -21z m112 -194 c0 -27 -27 -49 -44 -37 -13 9 -13 65 0 74 17 12 44 -10 44 -37z"/> <path d="M952 1647 c-3 -44 6 -77 21 -77 9 0 11 13 9 42 -3 32 0 45 14 55 16 12 15 13 -12 13 -26 0 -29 -4 -32 -33z"/> <path d="M1328 1529 c-23 -13 -25 -61 -3 -53 8 4 13 10 10 14 -3 4 2 13 10 20 29 24 16 39 -17 19z"/> <path d="M1370 1525 c0 -7 8 -18 17 -24 14 -7 15 -12 4 -25 -7 -8 -22 -14 -33 -13 -28 3 -34 -19 -7 -26 15 -4 28 2 45 20 28 30 30 46 8 67 -19 20 -34 20 -34 1z"/> <path d="M1225 1450 c-27 -10 -45 -19 -39 -19 20 -2 25 -45 7 -58 -15 -12 -15 -13 5 -13 29 0 132 39 132 51 0 5 -5 9 -10 9 -6 0 -16 11 -22 25 -6 14 -14 24 -17 24 -3 -1 -28 -10 -56 -19z m72 -26 c4 -11 -65 -39 -74 -30 -11 11 6 35 29 39 30 5 41 3 45 -9z"/> <path d="M1148 1442 c-40 -8 -29 -83 11 -81 10 0 11 2 4 6 -7 2 -13 17 -13 33 0 16 6 30 13 33 17 6 5 14 -15 9z"/> <path d="M1301 1088 c-10 -16 -10 -22 0 -28 29 -19 53 16 26 38 -10 8 -16 6 -26 -10z"/> <path d="M1302 883 c-9 -20 -9 -30 3 -56 7 -17 9 -17 25 -2 15 14 17 22 8 46 -11 33 -23 37 -36 12z"/> <path d="M725 1738 c-62 -51 -92 -88 -129 -158 -58 -110 -78 -186 -79 -308 0 -59 2 -118 5 -132 18 -78 33 -121 60 -175 76 -151 222 -276 381 -325 38 -12 34 6 -5 19 -110 39 -262 166 -327 275 -68 114 -85 176 -85 321 -1 108 3 142 21 200 29 92 84 183 155 256 64 65 65 77 3 27z"/> <path d="M1636 1705 c47 -48 75 -88 108 -157 52 -110 66 -169 66 -286 0 -247 -136 -462 -363 -577 -37 -18 -63 -36 -58 -40 12 -7 137 54 187 91 109 82 196 205 236 334 19 61 23 97 23 195 0 137 -11 186 -67 297 -29 56 -57 94 -109 142 -89 85 -106 86 -23 1z"/> <path d="M778 1713 c-17 -19 -24 -40 -33 -92 -6 -36 18 -136 36 -146 5 -4 3 10 -5 30 -19 45 -21 131 -3 165 16 31 27 60 23 60 -1 0 -10 -8 -18 -17z"/> <path d="M1587 1624 c3 -38 7 -71 9 -73 8 -9 3 115 -5 128 -5 8 -7 -14 -4 -55z"/> <path d="M1090 565 c-14 -17 -105 -21 -115 -5 -10 17 -41 11 -61 -11 -10 -12 -31 -27 -46 -35 -25 -13 -31 -12 -67 10 -22 14 -42 30 -46 36 -11 17 -54 11 -72 -10 -10 -11 -25 -20 -34 -20 -9 0 -24 9 -34 20 -25 28 -60 25 -84 -6 -35 -45 -25 -210 13 -215 6 -1 65 -3 131 -5 98 -2 183 -8 204 -13 2 -1 -4 -12 -12 -25 -17 -26 -14 -68 7 -101 12 -18 27 -20 237 -22 123 -2 233 -3 243 -3 11 -1 26 6 34 14 11 11 20 12 39 3 29 -13 37 -6 57 53 16 44 16 45 -8 66 l-24 22 36 0 c185 3 231 5 242 12 6 4 25 3 41 -3 23 -9 32 -8 48 8 17 14 21 30 21 76 0 79 -27 112 -93 113 -36 1 -52 7 -74 29 -37 34 -44 34 -81 -4 -23 -24 -36 -30 -54 -26 -13 4 -36 0 -52 -8 -25 -13 -32 -13 -76 10 -27 14 -51 29 -55 35 -10 16 -30 12 -60 -12 -33 -26 -125 -37 -125 -14 0 17 -32 46 -52 46 -9 0 -21 -7 -28 -15z m45 -40 c0 -28 -29 -25 -33 3 -3 19 0 23 15 20 10 -2 18 -12 18 -23z m521 14 c3 -6 0 -17 -7 -25 -18 -17 -44 -2 -36 20 7 18 33 21 43 5z m-1034 -71 c15 -43 28 -67 32 -58 3 8 15 41 26 73 18 48 25 57 46 57 24 0 24 -1 24 -95 0 -90 -1 -95 -21 -95 -21 0 -21 4 -17 65 3 36 2 63 -1 60 -4 -2 -16 -31 -26 -65 -25 -84 -46 -82 -77 8 l-23 67 -3 -67 c-2 -56 -6 -68 -20 -68 -15 0 -17 11 -14 95 3 91 4 95 26 95 19 0 27 -12 48 -72z m348 -23 c0 -88 -1 -95 -20 -95 -19 0 -20 7 -20 95 0 88 1 95 20 95 19 0 20 -7 20 -95z m380 58 c0 -29 3 -34 12 -25 15 15 51 15 66 0 7 -7 12 -38 12 -70 0 -51 -2 -58 -20 -58 -16 0 -19 5 -14 30 9 43 -3 80 -25 80 -23 0 -31 -19 -31 -71 0 -30 -4 -39 -17 -39 -16 0 -18 11 -18 95 0 84 2 95 18 95 13 0 17 -8 17 -37z m-306 2 c-4 -10 0 -15 15 -15 12 0 21 -6 21 -15 0 -8 -9 -15 -20 -15 -16 0 -20 -7 -20 -36 0 -27 5 -37 20 -41 35 -9 24 -35 -12 -31 -32 3 -33 4 -36 56 -2 37 -7 52 -18 52 -19 0 -18 19 1 26 8 4 15 12 15 20 0 8 9 14 20 14 13 0 18 -5 14 -15z m-224 -71 c0 -52 1 -55 23 -52 19 3 22 10 25 56 2 41 7 52 20 52 14 0 17 -11 17 -69 l0 -69 -50 -1 c-27 0 -55 5 -62 11 -8 6 -13 34 -13 69 0 52 2 59 20 59 18 0 20 -7 20 -56z m320 -14 c0 -63 -2 -70 -20 -70 -18 0 -20 7 -20 70 0 63 2 70 20 70 18 0 20 -7 20 -70z m144 48 c15 -24 0 -34 -28 -18 -35 18 -56 7 -56 -30 0 -37 21 -48 56 -30 28 16 43 6 28 -18 -7 -10 -27 -18 -52 -20 -32 -2 -43 1 -56 20 -39 55 -4 122 61 116 20 -2 41 -10 47 -20z m296 3 c5 -11 10 -42 10 -69 l0 -48 -55 -2 c-44 -1 -57 2 -65 18 -13 24 -13 26 6 44 8 9 29 16 45 16 20 0 29 5 29 16 0 13 -7 15 -40 9 -22 -4 -40 -3 -40 2 0 36 92 47 110 14z m70 -51 c0 -56 -3 -70 -15 -70 -12 0 -15 14 -15 70 0 56 3 70 15 70 12 0 15 -14 15 -70z m60 58 c0 -9 3 -9 12 0 17 17 54 15 72 -4 11 -10 16 -34 16 -70 0 -47 -3 -54 -19 -54 -17 0 -20 8 -23 53 -3 44 -6 52 -23 52 -17 0 -20 -8 -23 -52 -3 -45 -6 -53 -23 -53 -17 0 -19 7 -19 70 0 56 3 70 15 70 8 0 15 -5 15 -12z m-300 -169 c0 -5 -11 -9 -25 -9 -26 0 -35 25 -12 33 13 5 37 -10 37 -24z m-386 5 c23 -22 21 -24 -24 -20 -47 4 -61 13 -40 26 22 14 47 12 64 -6z m190 -4 c5 -5 2 -15 -8 -25 -9 -9 -16 -21 -16 -26 0 -6 -11 3 -25 19 -35 42 -33 56 7 48 18 -3 37 -11 42 -16z m93 12 c8 -5 5 -14 -9 -32 -15 -18 -23 -22 -36 -14 -25 16 -25 30 0 42 28 13 30 13 45 4z m-181 -13 c3 -6 0 -15 -7 -20 -20 -12 -23 -11 -37 11 -11 18 -10 20 12 20 14 0 28 -5 32 -11z m-230 -59 c7 -34 24 -30 24 6 0 36 26 30 35 -8 l7 -33 11 33 c5 17 14 32 18 32 11 0 12 1 -7 -53 -18 -52 -29 -53 -40 -4 l-7 32 -11 -32 c-16 -46 -23 -49 -34 -11 -5 18 -13 41 -17 51 -4 10 -3 17 4 17 6 0 14 -13 17 -30z m188 -10 c19 -49 20 -72 2 -47 -17 22 -42 22 -55 0 -5 -10 -12 -15 -15 -12 -8 8 32 99 43 99 5 0 16 -18 25 -40z m66 0 c0 -33 3 -40 20 -40 11 0 20 -4 20 -10 0 -5 -13 -10 -30 -10 -29 0 -30 1 -30 50 0 28 5 50 10 50 6 0 10 -18 10 -40z m90 0 c0 -36 2 -40 26 -40 14 0 23 -4 19 -10 -3 -5 -19 -10 -36 -10 -28 0 -29 1 -29 50 0 28 5 50 10 50 6 0 10 -18 10 -40z m140 30 c0 -5 -11 -10 -25 -10 -34 0 -32 -20 3 -21 l27 -2 -27 -4 c-35 -5 -37 -33 -3 -33 14 0 25 -5 25 -11 0 -6 -14 -9 -32 -7 -32 3 -33 5 -36 51 l-3 47 35 0 c20 0 36 -4 36 -10z m100 0 c0 -5 -7 -10 -15 -10 -11 0 -15 -11 -15 -40 0 -22 -4 -40 -10 -40 -5 0 -10 18 -10 40 0 29 -4 40 -15 40 -8 0 -15 5 -15 10 0 6 18 10 40 10 22 0 40 -4 40 -10z"/> <path d="M1504 399 c-9 -15 12 -33 30 -26 9 4 16 13 16 22 0 17 -35 21 -46 4z"/> </g> </svg> 